<?xml version="1.0" standalone="no"?>
<!DOCTYPE svg PUBLIC "-//W3C//DTD SVG 20010904//EN"
 "http://www.w3.org/TR/2001/REC-SVG-20010904/DTD/svg10.dtd">
<svg version="1.0" xmlns="http://www.w3.org/2000/svg"
 width="512.000000pt" height="512.000000pt" viewBox="0 0 512.000000 512.000000"
 preserveAspectRatio="xMidYMid meet">

<g transform="translate(0.000000,512.000000) scale(0.100000,-0.100000)"
fill="#000000" stroke="none">
<path d="M2245 5094 c-959 -130 -1749 -756 -2080 -1647 -162 -436 -200 -937
-106 -1402 202 -1005 1007 -1801 2016 -1994 348 -67 642 -67 985 0 1011 198
1812 999 2009 2009 41 213 50 336 40 595 -7 217 -11 246 -49 435 -199 979
-1001 1776 -1983 1970 -255 51 -605 65 -832 34z m795 -1079 c104 -17 193 -47
234 -79 25 -19 36 -40 56 -107 21 -74 31 -90 86 -151 34 -37 77 -93 94 -123
17 -30 32 -55 33 -56 1 0 103 -4 227 -8 256 -9 338 -25 422 -87 84 -60 86 -66
104 -451 18 -387 14 -791 -11 -1053 -18 -189 -27 -226 -66 -273 -55 -66 -60
-67 -433 -67 l-336 0 -62 -46 c-248 -182 -602 -241 -906 -150 -96 29 -226 93
-308 151 l-63 45 -299 0 c-255 0 -319 -3 -433 -21 -113 -18 -158 -20 -284 -14
-233 10 -233 10 -271 75 -18 30 -41 87 -51 125 -19 75 -19 5 -8 1045 3 330 11
412 52 529 42 122 90 187 200 268 136 100 265 141 412 130 109 -8 136 -20 176
-81 19 -28 45 -63 59 -78 l25 -28 170 0 169 0 32 57 c18 31 56 82 85 113 41
42 56 68 68 110 26 99 47 132 104 163 145 77 462 105 723 62z"/>
<path d="M2574 3876 c-128 -25 -161 -55 -94 -88 59 -29 173 -41 335 -35 155 5
244 22 273 51 14 14 14 18 2 31 -45 44 -364 70 -516 41z"/>
<path d="M1265 3646 c-89 -41 -108 -77 -52 -95 70 -24 227 34 227 83 0 13 -7
27 -16 30 -35 13 -111 5 -159 -18z"/>
<path d="M2601 3295 c-167 -37 -318 -111 -439 -216 -120 -105 -250 -310 -287
-453 -58 -228 -37 -459 59 -660 230 -479 806 -672 1281 -429 227 116 392 318
472 581 24 78 27 103 27 247 1 140 -2 171 -23 245 -101 359 -378 616 -739 686
-92 18 -266 17 -351 -1z m340 -159 c289 -62 525 -290 599 -580 27 -108 27
-264 0 -372 -58 -225 -220 -422 -428 -519 -100 -48 -170 -65 -287 -72 -313
-18 -611 158 -746 442 -59 123 -74 190 -74 340 0 147 15 213 72 330 70 141
174 257 298 333 68 41 191 90 257 101 83 14 236 12 309 -3z"/>
<path d="M2639 2841 c-224 -72 -360 -269 -346 -501 20 -353 398 -567 715 -406
111 56 215 186 248 309 18 69 18 185 -2 261 -41 158 -183 298 -347 342 -73 19
-200 17 -268 -5z"/>
<path d="M1175 3255 c-22 -22 -25 -32 -25 -104 0 -70 3 -83 24 -108 23 -26 29
-28 105 -28 75 0 83 2 108 28 26 25 28 33 28 108 0 76 -2 82 -28 105 -25 21
-38 24 -108 24 -72 0 -82 -3 -104 -25z"/>
<path d="M3865 3255 c-22 -22 -25 -32 -25 -104 0 -70 3 -83 24 -108 23 -26 29
-28 105 -28 74 0 83 2 107 26 46 47 45 168 -1 215 -21 21 -33 24 -105 24 -73
0 -83 -3 -105 -25z"/>
</g>
</svg>
